<?xml version="1.0" standalone="no"?>
<!DOCTYPE svg PUBLIC "-//W3C//DTD SVG 20010904//EN"
 "http://www.w3.org/TR/2001/REC-SVG-20010904/DTD/svg10.dtd">
<svg version="1.0" xmlns="http://www.w3.org/2000/svg"
 width="612.000000pt" height="612.000000pt" viewBox="0 0 612.000000 612.000000"
 preserveAspectRatio="xMidYMid meet">
<metadata>
Created by potrace 1.14, written by Peter Selinger 2001-2017
</metadata>
<g transform="translate(0.000000,612.000000) scale(0.100000,-0.100000)"
fill="#000000" stroke="none">
<path d="M2894 5812 c4 -6 24 -16 44 -21 20 -6 62 -26 92 -46 59 -38 104 -49
60 -15 -14 11 -34 23 -45 26 -11 3 -34 17 -51 29 -33 25 -112 46 -100 27z"/>
<path d="M2822 5789 c6 -18 85 -72 98 -67 7 2 -9 20 -36 41 -48 38 -69 46 -62
26z"/>
<path d="M2580 5773 c-14 -3 -30 -9 -36 -14 -6 -5 -33 -8 -60 -5 -59 5 -114
-18 -169 -69 -22 -21 -58 -46 -80 -56 -41 -19 -164 -136 -185 -177 -6 -13 -9
-29 -7 -37 3 -7 -10 -28 -29 -46 -19 -18 -34 -38 -34 -43 0 -6 -7 -24 -15 -39
-38 -73 -46 -144 -36 -337 4 -102 6 -188 2 -192 -3 -3 -53 -27 -110 -53 -283
-126 -577 -337 -737 -528 -215 -255 -308 -484 -321 -782 -9 -220 36 -450 136
-703 48 -119 120 -264 121 -242 0 24 55 78 87 86 15 4 60 19 98 35 84 33 199
55 357 68 127 11 146 17 196 65 20 19 31 24 27 14 -4 -10 -3 -18 2 -18 14 0
40 31 52 63 6 15 17 27 25 27 9 0 13 -6 10 -14 -6 -17 18 -27 37 -15 21 13 29
11 23 -6 -4 -8 -15 -15 -26 -15 -16 0 -18 -3 -9 -14 10 -12 18 -11 52 5 36 18
41 18 55 4 9 -8 25 -15 37 -15 34 0 67 -11 67 -22 0 -6 -32 -9 -82 -7 -81 4
-83 3 -81 -18 3 -27 -6 -29 -33 -8 -28 22 -38 19 -150 -36 -57 -27 -109 -47
-115 -44 -16 11 -59 -4 -59 -20 0 -11 -14 -13 -66 -11 -49 2 -67 0 -71 -11 -3
-8 -12 -12 -22 -8 -9 4 -47 13 -85 20 -70 13 -106 6 -106 -21 0 -17 -57 -54
-84 -54 -14 0 -28 -4 -31 -10 -10 -16 -43 -12 -54 8 -9 15 -12 15 -21 2 -14
-21 -12 -47 3 -53 9 -4 9 -7 -1 -18 -9 -9 -12 -10 -12 -1 0 7 -5 12 -11 12 -7
0 -8 -11 -4 -30 4 -19 3 -30 -4 -30 -6 0 -16 -10 -21 -22 -5 -13 -26 -63 -48
-113 -21 -49 -47 -115 -57 -145 -10 -30 -21 -64 -26 -75 -54 -131 -102 -284
-135 -430 -16 -72 -20 -372 -5 -465 18 -120 33 -354 30 -480 -2 -76 1 -137 8
-155 6 -16 16 -57 22 -90 7 -40 18 -66 32 -77 33 -27 39 -22 39 32 0 48 2 50
39 69 57 30 169 59 301 78 212 31 628 19 726 -22 40 -16 43 -38 46 -282 l1
-183 386 1 c336 1 377 3 319 13 -37 7 -76 20 -86 29 -10 9 -23 17 -29 17 -5 0
-18 9 -28 20 -18 20 -17 20 26 20 69 -1 316 -28 404 -45 266 -51 306 -55 498
-55 126 1 238 7 325 19 189 25 196 44 27 75 -174 32 -333 68 -400 90 -38 13
-88 28 -110 33 -57 15 -155 53 -292 113 -210 93 -311 149 -296 163 12 12 52 2
311 -83 289 -94 358 -98 625 -35 38 9 109 20 159 24 82 8 111 5 174 -14 15 -5
23 -2 28 12 3 10 8 23 12 30 3 6 -19 23 -53 39 -54 26 -67 28 -193 29 -74 0
-170 -5 -213 -12 -43 -6 -95 -9 -115 -7 -98 13 -102 15 -117 45 -15 27 -14 30
2 35 10 3 33 12 51 20 18 8 37 14 43 14 6 0 36 12 67 26 81 38 152 40 342 14
124 -17 189 -21 269 -17 106 6 194 29 211 57 4 7 14 10 21 8 8 -3 21 1 30 8
13 12 23 12 65 -1 61 -18 64 -18 64 -1 0 7 -9 16 -21 19 -12 3 -18 10 -14 16
4 7 -4 11 -19 11 -14 0 -26 3 -26 8 1 15 28 42 42 42 22 0 87 29 66 30 -13 0
-18 8 -18 26 0 26 2 26 43 20 23 -4 46 -11 51 -17 21 -19 27 -7 24 43 -2 45
-7 55 -27 63 -23 10 -23 11 -6 28 33 33 0 142 -46 154 -10 3 -16 9 -14 14 7
11 -26 49 -43 49 -8 0 -12 6 -9 14 7 17 -13 26 -59 26 -19 0 -34 5 -34 10 0 6
-5 10 -12 10 -6 0 -8 -3 -5 -7 12 -12 -15 -33 -43 -33 -23 0 -27 -4 -23 -20 4
-15 0 -20 -16 -20 -11 0 -21 -4 -21 -10 0 -5 17 -10 37 -10 45 0 34 -12 -27
-29 -25 -7 -53 -22 -64 -33 -10 -11 -24 -17 -31 -14 -28 10 -38 -21 -19 -59
19 -40 39 -54 56 -37 10 10 48 5 48 -8 0 -4 -21 -11 -47 -14 -64 -9 -83 -15
-83 -27 0 -5 17 -6 41 -3 33 6 41 4 37 -7 -2 -8 -14 -15 -26 -17 -12 -2 -23
-9 -23 -15 -1 -7 -3 -23 -4 -37 -1 -14 2 -28 8 -32 17 -11 1 -21 -22 -13 -11
3 -18 12 -15 19 4 11 -17 13 -106 11 -95 -2 -114 0 -134 16 -13 11 -34 19 -45
19 -14 0 -25 9 -31 25 -12 30 -14 31 -41 4 -23 -23 -44 -20 -103 18 -27 18
-47 24 -70 20 -33 -5 -144 19 -160 34 -6 5 -43 9 -83 9 -69 0 -76 2 -108 32
-19 17 -35 37 -35 44 0 7 -15 18 -34 25 -21 7 -32 17 -29 25 3 8 -19 25 -56
44 -58 29 -61 29 -61 10 0 -11 -4 -20 -10 -20 -5 0 -10 7 -10 16 0 22 -25 44
-50 44 -14 0 -24 8 -27 21 -4 15 -11 19 -26 15 -23 -6 -46 18 -47 49 -1 30
-83 65 -171 75 -128 15 -151 24 -142 59 5 19 73 61 100 61 20 1 63 33 63 47 0
6 11 15 25 21 14 7 25 20 25 31 0 11 5 23 10 26 6 4 8 15 5 26 -4 13 -2 19 9
19 8 0 23 17 33 37 16 34 24 39 73 48 30 6 67 19 82 29 15 10 31 15 36 12 15
-9 67 66 63 92 -1 13 3 30 10 38 20 25 -3 39 -42 25 -38 -13 -159 -15 -159 -2
0 5 27 14 59 19 63 11 97 35 103 71 3 21 6 20 60 -14 44 -27 62 -34 75 -27 19
11 50 -2 71 -30 7 -10 20 -18 28 -18 19 0 19 59 -1 66 -8 4 -15 12 -15 19 0 8
-9 17 -20 20 -42 13 -11 92 31 80 10 -3 28 -8 39 -11 14 -4 20 -1 20 10 0 11
-9 16 -26 16 -21 0 -24 3 -15 14 8 10 8 20 -4 42 -9 19 -11 30 -4 33 19 6 31
52 17 68 -10 12 -7 13 18 7 39 -9 39 -8 27 -61 -7 -29 -8 -56 -2 -71 5 -13 16
-58 25 -100 25 -126 162 -440 220 -506 39 -45 37 -26 -6 48 -22 38 -40 74 -40
80 0 19 -44 142 -85 236 -32 74 -64 197 -65 254 0 16 2 16 18 -4 15 -19 25
-22 54 -16 40 7 60 42 51 87 -3 15 3 33 14 47 16 20 22 21 62 11 25 -5 68 -7
96 -4 40 5 54 3 64 -9 30 -36 34 -4 15 121 -2 17 -25 62 -50 98 -51 75 -54 96
-5 35 18 -22 50 -49 71 -60 45 -23 50 -24 50 -10 0 6 -5 10 -12 10 -26 0 -80
55 -119 120 -23 39 -46 73 -50 76 -5 3 -26 -8 -47 -25 l-38 -30 4 31 c4 25 2
30 -11 25 -12 -4 -15 3 -13 42 1 35 5 47 14 44 9 -4 10 1 3 21 -27 69 -76 144
-88 132 -7 -7 -5 -348 3 -355 2 -2 12 3 22 12 10 10 21 14 24 11 6 -5 -18 -47
-59 -104 -36 -49 -73 -115 -73 -132 0 -9 -4 -19 -9 -23 -13 -8 -61 154 -61
206 0 86 -38 169 -84 184 -18 6 -18 8 -4 12 9 2 27 -1 40 -8 23 -12 23 -12 4
10 -11 11 -25 21 -32 21 -26 0 -26 23 1 44 18 14 25 27 21 35 -6 10 -12 9 -24
-2 -10 -8 -25 -17 -36 -21 -11 -4 -16 -12 -12 -21 3 -9 0 -15 -9 -15 -8 0 -15
4 -15 9 0 5 -20 6 -45 3 -43 -4 -105 12 -105 28 0 4 -15 8 -33 8 -19 0 -53 10
-77 22 -28 14 -53 20 -71 16 -18 -3 -29 0 -32 8 -3 7 -22 16 -41 20 -20 4 -36
11 -36 17 0 6 -14 7 -33 4 -27 -5 -59 6 -192 71 -88 42 -162 79 -164 80 -2 2
4 27 14 56 11 36 17 85 17 150 0 55 4 95 9 92 13 -8 89 -121 89 -132 0 -5 7
-15 16 -23 9 -7 22 -29 30 -48 16 -37 94 -103 129 -109 11 -2 33 -4 50 -4 18
0 35 -8 43 -20 9 -11 21 -17 31 -13 10 3 40 -4 67 -16 27 -11 73 -22 102 -24
30 -2 56 -5 58 -7 6 -7 160 -1 185 7 13 4 35 15 49 24 14 10 44 23 68 31 48
15 59 25 64 60 1 14 8 25 15 25 18 0 84 74 147 164 30 43 63 84 73 92 17 13
17 13 0 -11 -99 -140 -114 -177 -124 -311 -6 -75 3 -99 64 -169 22 -25 56 -70
76 -102 36 -57 62 -74 96 -63 10 3 67 -10 127 -29 60 -18 125 -37 144 -41 19
-4 70 -17 112 -31 42 -13 143 -37 225 -53 233 -48 291 -85 329 -210 15 -52 29
-65 37 -33 2 10 28 -32 64 -108 51 -105 79 -170 161 -383 5 -13 26 10 89 105
260 392 385 811 370 1237 -15 415 -175 771 -496 1105 -182 188 -466 382 -721
491 -67 29 -296 115 -305 115 -2 0 -6 -32 -9 -71 -4 -38 -23 -149 -42 -245
-45 -230 -44 -264 8 -264 9 0 22 -10 29 -21 8 -16 8 -20 -1 -14 -6 4 -20 -1
-30 -10 -15 -13 -17 -27 -13 -78 5 -79 11 -107 22 -107 4 0 13 10 20 23 23 44
1 -65 -29 -144 -16 -41 -34 -106 -41 -143 -9 -49 -16 -65 -26 -62 -8 3 -17 -4
-23 -18 -10 -26 -34 -40 -66 -37 -12 1 -24 -5 -27 -13 -4 -9 -13 -16 -22 -16
-8 0 -15 -6 -15 -14 0 -7 -8 -24 -19 -37 -10 -13 -20 -33 -22 -43 -2 -11 -10
-21 -18 -24 -11 -4 -13 4 -9 36 6 44 -11 135 -33 169 -13 22 -58 48 -67 38 -3
-2 -12 1 -20 7 -8 7 -21 13 -29 14 -29 5 -43 14 -43 29 0 12 -9 15 -41 13 -44
-2 -63 13 -55 47 3 10 -2 27 -11 37 -9 10 -13 26 -10 38 3 13 0 23 -9 27 -8 3
-14 11 -14 19 0 7 -10 19 -22 25 -19 10 -25 8 -44 -15 -13 -15 -21 -33 -17
-42 4 -12 0 -14 -22 -8 -23 6 -27 4 -23 -8 4 -8 2 -21 -2 -28 -6 -10 -24 0
-73 43 -72 63 -92 71 -85 32 4 -21 1 -25 -18 -25 -24 0 -33 -23 -14 -35 15 -9
2 -25 -20 -25 -10 0 -20 -6 -23 -14 -6 -14 -61 -46 -80 -46 -27 0 -79 -56
-109 -118 -18 -37 -38 -73 -45 -80 -7 -7 -13 -19 -13 -26 0 -20 -31 -43 -67
-49 -26 -5 -31 -3 -26 8 3 11 -5 19 -26 26 -17 6 -31 15 -31 19 0 4 -13 13
-29 18 -16 6 -32 19 -35 30 -4 10 -18 24 -31 30 -14 6 -25 16 -25 22 0 18 -74
113 -78 101 -7 -21 30 -205 45 -222 7 -8 13 -21 13 -28 0 -29 -90 95 -111 152
-12 34 -38 97 -57 140 -21 47 -32 81 -26 85 22 15 32 79 20 126 -14 56 -31 75
-48 58 -21 -21 -25 -14 -38 67 -11 74 -3 201 15 219 12 13 33 -28 64 -124 25
-80 37 -103 56 -112 15 -7 25 -21 27 -39 3 -21 6 -16 11 22 4 28 11 75 16 105
12 77 6 79 -36 13 -9 -14 -9 -10 -1 22 5 22 15 49 20 59 6 10 14 50 19 89 9
69 49 177 67 177 5 0 14 12 21 26 6 15 28 46 47 70 31 37 40 43 63 37 14 -3
28 -10 29 -15 5 -12 45 -10 67 5 36 24 109 45 175 50 53 5 69 2 92 -14 27 -20
28 -20 53 -2 13 10 23 23 20 30 -2 7 0 15 5 18 6 4 10 1 10 -5 0 -6 5 -8 10
-5 6 3 10 22 10 41 0 19 -4 34 -10 34 -5 0 -10 -12 -10 -27 0 -37 -17 -18 -25
29 -6 30 -4 39 9 44 9 3 16 12 16 20 0 16 73 94 87 94 5 0 19 11 32 24 17 18
36 25 88 29 36 4 73 3 82 -2 17 -9 32 -12 166 -30 100 -14 152 -30 159 -48 4
-9 13 -12 25 -8 15 5 26 -9 60 -78 23 -46 52 -99 66 -117 17 -24 22 -40 18
-61 -3 -19 2 -42 16 -70 12 -23 20 -43 19 -45 -2 -2 -53 13 -113 34 -97 32
-122 36 -210 37 -112 0 -159 -16 -231 -80 -34 -31 -42 -33 -80 -28 -23 3 -57
0 -74 -6 -29 -10 -36 -8 -63 15 -17 14 -60 40 -96 57 -54 25 -82 32 -153 35
-94 4 -160 -11 -283 -68 -33 -15 -68 -30 -77 -33 -18 -6 -24 -41 -12 -70 4
-11 12 -13 33 -7 l28 8 7 -68 c10 -117 45 -188 125 -254 116 -97 279 -81 392
41 42 44 49 59 68 142 11 51 21 98 21 105 0 8 10 11 29 8 16 -2 32 1 35 7 5 7
-2 11 -18 11 -31 0 -34 16 -5 25 30 10 60 -21 52 -53 -4 -16 -2 -23 4 -19 6 4
11 -4 11 -18 0 -39 62 -184 85 -196 11 -6 39 -26 62 -43 76 -59 193 -72 278
-31 48 23 106 82 127 130 21 46 45 179 36 200 -3 9 11 31 34 55 37 38 40 39
41 18 0 -21 1 -21 8 -4 5 14 10 16 15 8 4 -7 11 -12 17 -12 13 0 2 72 -13 82
-10 6 -9 8 3 8 16 0 19 10 35 90 11 59 14 129 5 135 -6 3 -11 16 -11 28 0 20
-43 67 -62 67 -4 0 -8 5 -8 10 0 6 6 10 13 10 8 0 20 11 27 25 7 14 21 25 31
25 15 0 18 7 17 35 -1 19 -4 35 -7 35 -3 0 -12 4 -19 9 -11 6 -7 21 17 70 43
85 50 140 22 184 -20 33 -73 63 -91 52 -4 -2 -39 4 -79 15 -39 11 -88 20 -108
20 -21 0 -55 4 -75 9 -20 5 -40 6 -43 3 -9 -9 66 -42 96 -42 19 0 34 -9 49
-30 24 -33 20 -37 -13 -16 -30 19 -140 27 -133 10 10 -25 -56 -32 -128 -13
-171 44 -190 52 -253 97 -38 27 -47 28 -33 2 19 -36 -5 -21 -89 55 -46 41 -91
75 -101 75 -32 0 -50 12 -50 31 0 12 -13 26 -35 36 -19 9 -35 20 -35 24 0 4
-17 7 -37 6 -21 -1 -45 1 -53 5 -8 3 -26 3 -40 1z m-45 -83 c3 -5 2 -10 -4
-10 -5 0 -13 5 -16 10 -3 6 -2 10 4 10 5 0 13 -4 16 -10z m177 -6 c52 -7 77
-22 56 -35 -14 -9 133 -133 207 -174 33 -19 74 -37 90 -40 17 -4 41 -11 55
-16 14 -5 90 -11 168 -12 l142 -2 27 -29 c22 -23 24 -27 8 -20 -11 4 -49 9
-85 10 -36 1 -52 0 -37 -3 17 -3 26 -9 23 -16 -3 -7 -9 -20 -12 -29 -10 -28
-65 -22 -294 33 -163 39 -198 49 -240 71 -19 10 -43 18 -53 18 -10 0 -30 9
-44 20 -27 21 -63 27 -63 11 0 -5 6 -11 13 -14 6 -2 9 -7 6 -11 -7 -7 -59 16
-59 27 0 4 9 7 19 7 11 0 27 10 35 22 9 12 16 19 16 14 0 -5 6 -3 14 3 15 13
30 9 101 -24 61 -29 105 -41 105 -28 0 6 -19 18 -42 29 -24 10 -60 36 -81 56
-21 21 -44 38 -53 38 -8 0 -19 11 -24 26 -6 16 -27 32 -56 46 -35 15 -43 22
-33 29 8 5 20 7 26 4 7 -2 36 -7 65 -11z m-382 -34 c12 -8 9 -10 -13 -10 -16
0 -26 4 -22 10 8 12 16 12 35 0z m-190 -280 c8 -5 12 -11 9 -14 -3 -3 -14 1
-25 9 -21 16 -8 20 16 5z m305 -70 c-3 -5 -15 -10 -26 -10 -11 0 -17 5 -14 10
3 6 15 10 26 10 11 0 17 -4 14 -10z m-73 -22 c-9 -9 -15 -9 -24 0 -9 9 -7 12
12 12 19 0 21 -3 12 -12z m-122 -68 c21 -13 12 -17 -62 -25 -57 -5 -68 -4 -68
9 0 10 13 16 43 19 23 2 49 4 57 5 8 1 22 -2 30 -8z m570 -200 c0 -5 -4 -10
-10 -10 -5 0 -10 5 -10 10 0 6 5 10 10 10 6 0 10 -4 10 -10z m-230 -160 c0 -5
-4 -10 -10 -10 -5 0 -10 5 -10 10 0 6 5 10 10 10 6 0 10 -4 10 -10z m1144
-106 c10 -25 -1 -29 -14 -5 -6 12 -7 21 -1 21 5 0 12 -7 15 -16z m-236 -39
c104 -31 146 -91 146 -205 -1 -170 -108 -280 -274 -280 -61 0 -147 53 -189
117 -30 45 -37 63 -25 63 3 0 13 -9 22 -20 15 -17 24 -18 72 -11 30 5 49 9 43
10 -7 0 -13 6 -13 12 0 7 20 9 57 7 51 -4 148 5 180 17 16 5 6 35 -12 35 -13
0 -55 33 -55 44 0 4 5 4 10 1 6 -3 10 -4 10 -1 0 10 -80 46 -132 60 l-53 13
60 18 c36 11 83 17 118 16 52 -3 58 -1 55 15 -2 10 -16 22 -33 27 -17 5 -51
20 -78 33 -49 25 -86 30 -115 15 -9 -4 -30 -11 -47 -15 -25 -6 -28 -5 -17 6
35 36 184 48 270 23z m-714 -26 c60 -20 128 -70 114 -85 -3 -3 -16 5 -28 18
l-22 23 6 -25 7 -25 -24 26 c-50 55 -69 61 -191 63 -63 0 -112 3 -110 5 7 8
79 19 131 20 30 0 81 -8 117 -20z m-285 -22 c-2 -2 -19 -14 -36 -26 -26 -18
-32 -19 -27 -6 4 9 16 21 28 25 21 9 43 13 35 7z m403 -197 l-9 -24 -18 32
c-11 19 -30 34 -47 37 -46 10 -33 27 17 21 42 -4 45 -3 52 22 7 24 8 21 11
-18 2 -25 -1 -57 -6 -70z m299 69 c-10 -10 -22 -27 -26 -38 -3 -12 -14 -19
-25 -18 -16 1 -20 9 -20 37 0 20 2 39 4 41 3 3 24 3 46 1 41 -4 41 -4 21 -23z
m-511 2 c0 -5 -10 -13 -22 -16 -47 -13 -108 -40 -108 -47 0 -5 -7 -8 -15 -8
-20 0 -95 -76 -95 -95 0 -32 43 -39 145 -23 77 11 95 12 95 1 0 -7 10 -13 23
-14 12 0 41 -2 65 -5 32 -3 44 0 48 11 4 8 12 15 20 15 8 0 14 10 14 23 0 23
17 47 32 47 14 0 9 -36 -11 -82 -45 -105 -164 -151 -305 -119 -75 18 -163 132
-174 227 -4 38 -2 44 14 44 18 1 18 1 2 11 -25 14 -22 32 5 26 12 -2 33 -1 47
3 36 11 220 12 220 1z m564 -77 c3 -8 2 -12 -4 -9 -6 3 -10 10 -10 16 0 14 7
11 14 -7z m187 2 c37 -16 31 -21 -37 -30 -36 -5 -42 -3 -47 14 -3 14 1 20 17
23 11 2 24 5 27 6 4 0 22 -5 40 -13z m-691 -31 c0 -8 -4 -15 -10 -15 -5 0 -10
7 -10 15 0 8 5 15 10 15 6 0 10 -7 10 -15z m-150 -30 c0 -9 -9 -15 -25 -15
-24 0 -32 10 -18 23 12 13 43 7 43 -8z m188 -17 c-6 -18 -28 -21 -28 -4 0 9 7
16 16 16 9 0 14 -5 12 -12z m289 -640 c-3 -8 -6 -5 -6 6 -1 11 2 17 5 13 3 -3
4 -12 1 -19z m673 -32 c0 -3 -4 -8 -10 -11 -5 -3 -10 -1 -10 4 0 6 5 11 10 11
6 0 10 -2 10 -4z m-438 -104 c-1 -18 -11 -42 -22 -54 -17 -19 -26 -20 -89 -14
-96 8 -109 15 -74 33 70 36 159 72 173 70 10 -2 14 -13 12 -35z m-403 -13 c38
-10 47 -10 73 6 21 12 33 14 41 6 7 -7 14 -7 24 1 22 18 27 1 7 -25 -22 -29
-77 -47 -147 -47 -61 0 -92 18 -100 56 -4 24 -3 26 27 21 17 -3 51 -11 75 -18z
m208 -5 c-3 -4 -14 -3 -24 0 -15 6 -15 8 -3 16 16 10 39 -4 27 -16z m-849
-461 c-10 -2 -28 -2 -40 0 -13 2 -5 4 17 4 22 1 32 -1 23 -4z m-197 -335 c38
-20 116 -98 98 -98 -8 0 -33 18 -54 40 -21 22 -47 40 -56 40 -10 0 -25 3 -34
6 -13 5 -14 8 -3 15 17 11 22 11 49 -3z m-84 -4 c-3 -3 -12 -4 -19 -1 -8 3 -5
6 6 6 11 1 17 -2 13 -5z m68 -224 c3 -5 1 -10 -4 -10 -6 0 -11 5 -11 10 0 6 2
10 4 10 3 0 8 -4 11 -10z m51 -45 c4 -8 12 -15 19 -15 7 0 18 -7 25 -15 7 -8
16 -13 20 -10 11 7 40 -5 40 -17 0 -11 -56 -1 -80 14 -22 14 -53 58 -40 58 6
0 13 -7 16 -15z m-581 -13 c-3 -3 -11 0 -18 7 -9 10 -8 11 6 5 10 -3 15 -9 12
-12z m720 -12 c3 -5 2 -10 -4 -10 -5 0 -13 5 -16 10 -3 6 -2 10 4 10 5 0 13
-4 16 -10z m-1090 -59 c-6 -5 -19 -11 -30 -13 -11 -2 -26 -17 -35 -33 -12 -26
-15 -27 -18 -10 -2 10 1 21 7 23 6 2 11 10 11 17 0 14 19 22 55 24 11 1 15 -3
10 -8z m1020 -121 c3 -5 1 -10 -4 -10 -6 0 -11 5 -11 10 0 6 2 10 4 10 3 0 8
-4 11 -10z m110 -56 c21 -14 56 -32 79 -41 22 -9 45 -20 51 -25 16 -14 -41 -9
-81 8 -31 13 -45 14 -70 5 -33 -12 -186 -5 -213 9 -8 4 13 10 48 14 33 4 75
12 91 18 26 8 34 7 51 -7 10 -10 22 -16 25 -12 3 3 -6 13 -20 22 -14 10 -26
21 -26 26 0 16 27 9 65 -17z m-230 -202 c32 -5 75 -38 75 -57 0 -6 -5 -16 -11
-22 -20 -20 -129 55 -129 90 0 5 8 6 18 2 9 -4 31 -10 47 -13z m460 -152 c13
-21 77 -44 94 -33 34 21 120 37 148 27 27 -9 46 -37 22 -32 -7 2 -18 -7 -24
-20 -5 -12 -18 -25 -27 -28 -9 -3 -20 -14 -23 -25 -5 -13 -12 -18 -25 -14 -12
4 -19 -1 -23 -16 -4 -16 -11 -19 -29 -14 -41 12 -102 43 -137 69 -44 33 -81
33 -111 1 -28 -30 -46 -32 -55 -5 -3 11 -11 20 -16 20 -5 0 -9 9 -9 20 0 27
18 26 22 -2 5 -32 26 -33 30 -1 3 24 8 28 40 31 20 2 42 10 48 18 14 16 66 19
75 4z m-209 -127 c17 -24 0 -43 -37 -43 -15 0 -31 -4 -34 -10 -3 -5 -12 -10
-20 -10 -12 0 -12 4 -1 26 27 50 69 67 92 37z m-646 -158 c19 -19 30 -35 24
-35 -19 1 -86 70 -67 70 5 0 24 -16 43 -35z m920 -17 c-1 -25 -26 -65 -36 -56
-8 8 17 78 28 78 4 0 8 -10 8 -22z m150 -8 c0 -5 -5 -10 -11 -10 -5 0 -7 5 -4
10 3 6 8 10 11 10 2 0 4 -4 4 -10z m-942 -95 c35 -40 26 -40 -24 1 -56 46 -85
91 -32 51 18 -14 43 -37 56 -52z m647 5 c-3 -5 -10 -10 -16 -10 -5 0 -9 5 -9
10 0 6 7 10 16 10 8 0 12 -4 9 -10z m-26 -34 c10 -12 8 -13 -8 -9 -12 3 -18 9
-15 14 7 12 10 11 23 -5z m56 4 c3 -5 2 -10 -4 -10 -5 0 -13 5 -16 10 -3 6 -2
10 4 10 5 0 13 -4 16 -10z m62 4 c-3 -3 -12 -4 -19 -1 -8 3 -5 6 6 6 11 1 17
-2 13 -5z m-157 -33 c0 -13 -46 -30 -60 -21 -9 6 -5 12 16 23 28 15 44 14 44
-2z m-592 -110 c31 -17 50 -30 41 -31 -16 0 -199 87 -199 95 0 7 93 -31 158
-64z m-290 -120 c3 -8 -1 -12 -9 -9 -7 2 -15 10 -17 17 -3 8 1 12 9 9 7 -2 15
-10 17 -17z m27 -31 c3 -5 1 -10 -4 -10 -6 0 -11 5 -11 10 0 6 2 10 4 10 3 0
8 -4 11 -10z m65 -70 c0 -5 -4 -10 -9 -10 -6 0 -13 5 -16 10 -3 6 1 10 9 10 9
0 16 -4 16 -10z m50 -47 c0 -13 -3 -13 -15 -3 -8 7 -15 16 -15 21 0 5 7 6 15
3 8 -4 15 -13 15 -21z m60 -65 c42 -44 45 -48 31 -48 -5 0 -25 20 -45 45 -47
57 -38 58 14 3z m1000 32 c0 -20 -41 -50 -67 -50 -27 0 -26 2 17 30 53 34 50
33 50 20z m-1175 -122 c25 -12 45 -25 45 -30 0 -9 -24 0 -75 29 -51 29 -30 30
30 1z m194 -80 c52 -17 117 -31 143 -31 35 -1 44 -3 32 -10 -21 -12 -153 1
-179 17 -11 7 -42 21 -68 31 -26 10 -50 23 -54 28 -4 7 1 8 13 3 10 -4 61 -21
113 -38z m-332 -24 c-3 -3 -12 -4 -19 -1 -8 3 -5 6 6 6 11 1 17 -2 13 -5z
m120 0 c-3 -3 -12 -4 -19 -1 -8 3 -5 6 6 6 11 1 17 -2 13 -5z m450 -30 c-3 -3
-12 -4 -19 -1 -8 3 -5 6 6 6 11 1 17 -2 13 -5z"/>
<path d="M3000 5676 c0 -2 8 -10 18 -17 15 -13 16 -12 3 4 -13 16 -21 21 -21
13z"/>
<path d="M2993 5633 c9 -9 20 -13 24 -9 4 4 1 11 -7 16 -25 16 -35 11 -17 -7z"/>
<path d="M3060 5636 c0 -1 29 -21 64 -45 51 -33 72 -42 98 -39 l33 4 -30 8
c-16 5 -42 17 -57 28 -24 16 -108 51 -108 44z"/>
<path d="M3200 5601 c0 -5 14 -15 30 -23 17 -7 30 -16 30 -20 0 -5 21 -8 48
-7 l47 0 -75 30 c-85 33 -80 32 -80 20z"/>
<path d="M3166 5522 c10 -9 100 -37 154 -47 63 -13 19 12 -61 34 -80 22 -109
26 -93 13z"/>
<path d="M3730 5510 c0 -5 18 -10 41 -10 24 0 38 4 34 10 -3 6 -22 10 -41 10
-19 0 -34 -4 -34 -10z"/>
<path d="M3750 4580 c0 -5 7 -10 15 -10 8 0 15 5 15 10 0 6 -7 10 -15 10 -8 0
-15 -4 -15 -10z"/>
<path d="M2197 3994 c-4 -12 -3 -33 3 -48 5 -15 10 -38 10 -51 0 -13 5 -27 12
-31 8 -5 9 2 3 27 -4 19 -11 54 -14 79 -5 36 -8 41 -14 24z"/>
<path d="M2657 2994 c-10 -11 5 -34 22 -34 23 0 31 9 24 26 -5 14 -34 19 -46
8z"/>
<path d="M2768 2913 c7 -3 16 -2 19 1 4 3 -2 6 -13 5 -11 0 -14 -3 -6 -6z"/>
<path d="M2915 2900 c-4 -6 7 -10 27 -9 27 0 30 2 13 9 -27 12 -33 12 -40 0z"/>
<path d="M3780 2655 c0 -4 80 -58 162 -108 45 -28 45 -19 -1 22 -51 47 -161
105 -161 86z"/>
<path d="M3330 2080 c0 -5 5 -10 10 -10 6 0 10 5 10 10 0 6 -4 10 -10 10 -5 0
-10 -4 -10 -10z"/>
<path d="M4738 1974 c-4 -5 -3 -41 2 -79 5 -40 5 -90 0 -117 -5 -27 -7 -60 -5
-76 4 -19 -3 -38 -25 -67 -42 -57 -80 -139 -80 -173 0 -16 7 -46 15 -66 30
-72 34 -205 14 -436 -23 -260 -23 -271 -5 -295 14 -19 15 -19 53 2 21 11 119
51 218 88 267 99 278 104 271 129 -3 12 -6 27 -6 34 0 6 -7 12 -15 12 -8 0
-15 8 -15 18 0 14 2 15 10 2 8 -12 10 -11 10 8 0 15 -6 22 -20 22 -25 0 -27
27 -2 33 13 4 11 5 -5 6 -13 0 -23 7 -23 14 0 19 -75 7 -231 -38 -67 -20 -124
-33 -126 -31 -6 6 82 51 152 77 48 18 115 69 115 87 0 4 -14 15 -30 24 -23 13
-30 24 -30 47 0 16 -4 33 -10 36 -5 3 -10 16 -10 29 0 12 -6 31 -14 41 -10 15
-11 25 -4 39 11 20 8 24 -37 51 -13 8 -14 15 -4 43 14 41 8 48 -25 26 -31 -20
-42 -14 -27 14 16 29 14 39 -10 63 -19 19 -20 25 -10 41 12 19 10 19 -21 13
l-33 -7 26 28 c28 30 47 74 32 74 -5 0 -19 -8 -33 -17 -23 -16 -23 -16 -15 3
4 10 10 35 12 54 4 31 3 33 -10 18 -20 -25 -23 -23 -19 20 4 46 -22 220 -30
206z"/>
<path d="M3517 1895 c-14 -35 54 -118 78 -94 7 7 1 17 -19 31 -15 12 -34 35
-41 51 -10 23 -13 26 -18 12z"/>
<path d="M3550 1880 c0 -5 7 -10 16 -10 8 0 12 5 9 10 -3 6 -10 10 -16 10 -5
0 -9 -4 -9 -10z"/>
<path d="M4385 1640 c28 -12 65 -12 65 0 0 6 -19 10 -42 9 -33 0 -38 -2 -23
-9z"/>
<path d="M3211 1578 c20 -38 117 -127 172 -158 46 -26 97 -76 97 -95 0 -4 9
-14 19 -23 11 -10 33 -44 50 -76 17 -33 45 -71 61 -84 17 -14 30 -31 30 -39 0
-22 124 -173 143 -173 9 0 4 81 -7 98 -4 7 -10 41 -12 75 -3 34 -8 64 -12 67
-21 15 -42 63 -42 95 0 31 3 35 28 36 15 0 21 3 12 6 -19 7 -103 67 -154 110
-22 18 -43 33 -48 33 -5 0 -22 10 -39 22 -16 12 -45 23 -63 24 -19 0 -57 13
-85 27 -28 15 -57 27 -64 27 -7 0 -28 11 -47 25 -42 31 -54 32 -39 3z"/>
<path d="M3630 1500 c0 -5 5 -10 11 -10 5 0 7 5 4 10 -3 6 -8 10 -11 10 -2 0
-4 -4 -4 -10z"/>
<path d="M4565 1481 c-3 -6 -17 -11 -29 -11 -27 0 -59 -41 -50 -64 3 -9 10
-16 14 -16 15 0 82 -65 96 -92 8 -16 22 -28 31 -28 32 0 -6 211 -40 218 -8 2
-18 -2 -22 -7z"/>
<path d="M3931 1376 c-8 -9 -11 -19 -7 -23 9 -9 29 13 24 27 -2 8 -8 7 -17 -4z"/>
<path d="M4078 1343 c-49 -2 -88 -7 -88 -12 0 -13 32 -36 75 -54 35 -15 45
-15 80 -3 21 8 41 19 43 25 2 6 13 11 25 12 l22 0 -21 9 c-12 5 -25 13 -29 19
-3 6 -9 10 -13 9 -4 -1 -46 -4 -94 -5z"/>
<path d="M3905 1331 c-7 -12 12 -24 25 -16 11 7 4 25 -10 25 -5 0 -11 -4 -15
-9z"/>
<path d="M4318 1293 c7 -3 16 -2 19 1 4 3 -2 6 -13 5 -11 0 -14 -3 -6 -6z"/>
<path d="M3814 1178 c-4 -6 2 -19 14 -29 14 -10 20 -23 16 -33 -4 -11 -1 -16
10 -16 9 0 16 8 16 18 0 10 5 23 12 30 8 8 8 15 -2 27 -15 18 -56 20 -66 3z"/>
<path d="M4090 930 c0 -5 5 -10 11 -10 5 0 7 5 4 10 -3 6 -8 10 -11 10 -2 0
-4 -4 -4 -10z"/>
<path d="M4500 732 c0 -5 11 -19 24 -31 27 -26 44 -13 24 19 -12 19 -48 28
-48 12z"/>
<path d="M4523 629 c14 -8 22 -8 30 0 8 8 3 11 -18 11 -26 -1 -28 -2 -12 -11z"/>
<path d="M4674 603 c11 -46 45 -335 46 -386 0 -61 20 -109 55 -133 15 -11 41
-34 58 -51 17 -18 40 -33 51 -33 16 0 17 3 8 12 -7 7 -12 20 -12 30 0 10 -4
18 -10 18 -5 0 -10 18 -10 40 0 24 -6 42 -15 47 -8 5 -21 37 -30 71 -9 35 -27
85 -41 112 -13 26 -24 57 -24 69 0 12 -4 21 -9 21 -4 0 -13 26 -19 58 -19 101
-33 152 -44 152 -6 0 -8 -11 -4 -27z"/>
<path d="M4539 495 c-18 -19 -38 -35 -43 -35 -12 0 -136 -110 -136 -121 0 -5
-11 -27 -25 -49 -23 -37 -33 -80 -18 -80 3 0 29 17 57 39 66 50 84 58 125 59
53 1 65 21 63 102 -2 38 2 79 8 91 19 35 4 32 -31 -6z"/>
<path d="M4510 59 c-41 -4 -142 -15 -225 -24 -274 -29 -257 -32 153 -34 215 0
392 2 392 7 0 4 -19 20 -42 35 -38 24 -51 27 -123 26 -44 -1 -114 -5 -155 -10z"/>
</g>
</svg>
